
#
# '/mnt/sdcard/Download/cds-data/audio/Track_12 (4s 256kbps).mp3'
#
General
Count                                    : 284
Count of stream of this kind             : 1
Kind of stream                           : General
Kind of stream                           : General
Stream identifier                        : 0
Count of audio streams                   : 1
Audio_Format_List                        : MPEG Audio
Audio_Format_WithHint_List               : MPEG Audio
Audio codecs                             : MPEG-1 Audio layer 3
Complete name                            : /mnt/sdcard/Download/cds-data/audio/Track_12 (4s 256kbps).mp3
Folder name                              : /mnt/sdcard/Download/cds-data/audio
File name                                : Track_12 (4s 256kbps)
File extension                           : mp3
Format                                   : MPEG Audio
Format                                   : MPEG Audio
Format/Extensions usually used           : m1a mpa1 mp1 m2a mpa2 mp2 mp3
Commercial name                          : MPEG Audio
Internet media type                      : audio/mpeg
Codec                                    : MPEG Audio
Codec                                    : MPEG Audio
Codec/Extensions usually used            : m1a mpa1 mp1 m2a mpa2 mp2 mp3
File size                                : 130530
File size                                : 127 KiB
File size                                : 127 KiB
File size                                : 127 KiB
File size                                : 127 KiB
File size                                : 127.5 KiB
Duration                                 : 4048
Duration                                 : 4s 48ms
Duration                                 : 4s 48ms
Duration                                 : 4s 48ms
Duration                                 : 00:00:04.048
Overall bit rate mode                    : CBR
Overall bit rate mode                    : Constant
Overall bit rate                         : 256000
Overall bit rate                         : 256 Kbps
Stream size                              : 128
Stream size                              : 128 Bytes (0%)
Stream size                              : 128 Bytes
Stream size                              : 128 Bytes
Stream size                              : 128 Bytes
Stream size                              : 128.0 Bytes
Stream size                              : 128 Bytes (0%)
Proportion of this stream                : 0.00098
Title                                    : Track_12
Album                                    : Album_1
Track name                               : Track_12
Performer                                : Andrew
File last modification date              : UTC 2014-11-26 06:29:51
File last modification date (local)      : 2014-11-26 15:29:51
Writing library                          : LAME3.99r
Writing library                          : LAME3.99r

Audio
Count                                    : 222
Count of stream of this kind             : 1
Kind of stream                           : Audio
Kind of stream                           : Audio
Stream identifier                        : 0
Format                                   : MPEG Audio
Commercial name                          : MPEG Audio
Format version                           : Version 1
Format profile                           : Layer 3
Format settings                          : Joint stereo
Mode                                     : Joint stereo
Internet media type                      : audio/mpeg
Codec                                    : MPA1L3
Codec                                    : MPEG-1 Audio layer 3
Codec profile                            : Joint stereo
Duration                                 : 4048
Duration                                 : 4s 48ms
Duration                                 : 4s 48ms
Duration                                 : 4s 48ms
Duration                                 : 00:00:04.048
Bit rate mode                            : CBR
Bit rate mode                            : Constant
Bit rate                                 : 256000
Bit rate                                 : 256 Kbps
Channel(s)                               : 2
Channel(s)                               : 2 channels
Sampling rate                            : 44100
Sampling rate                            : 44.1 KHz
Samples count                            : 178560
Frame count                              : 155
Compression mode                         : Lossy
Compression mode                         : Lossy
Stream size                              : 129567
Stream size                              : 127 KiB (99%)
Stream size                              : 127 KiB
Stream size                              : 127 KiB
Stream size                              : 127 KiB
Stream size                              : 126.5 KiB
Stream size                              : 127 KiB (99%)
Proportion of this stream                : 0.99262
Writing library                          : LAME3.99r
Writing library                          : LAME3.99r
Encoding settings                        : -m j -V 4 -q 3 -lowpass 19.7

